<svg width="28" height="37" viewBox="0 0 28 37" fill="none" xmlns="http://www.w3.org/2000/svg">
<path d="M0.586648 37V0.636363H14.5071C17.1349 0.636363 19.3189 1.05066 21.0589 1.87926C22.8108 2.69602 24.1188 3.81463 24.983 5.23508C25.8589 6.65554 26.2969 8.26539 26.2969 10.0646C26.2969 11.5443 26.0128 12.8108 25.4446 13.8643C24.8764 14.906 24.1129 15.7524 23.1541 16.4034C22.1953 17.0544 21.1241 17.522 19.9403 17.8061V18.1612C21.2306 18.2322 22.4676 18.6288 23.6513 19.3509C24.8468 20.0611 25.8234 21.0672 26.581 22.3693C27.3385 23.6714 27.7173 25.2457 27.7173 27.0923C27.7173 28.9744 27.2616 30.6671 26.3501 32.1705C25.4387 33.6619 24.0656 34.8397 22.2308 35.7038C20.3961 36.5679 18.0878 37 15.3061 37H0.586648ZM7.17401 31.4957H14.2585C16.6496 31.4957 18.3719 31.04 19.4254 30.1286C20.4908 29.2053 21.0234 28.0215 21.0234 26.5774C21.0234 25.5002 20.7571 24.5296 20.2244 23.6655C19.6918 22.7895 18.9342 22.103 17.9517 21.6058C16.9692 21.0968 15.7973 20.8423 14.4361 20.8423H7.17401V31.4957ZM7.17401 16.1016H13.6903C14.8267 16.1016 15.8506 15.8944 16.7621 15.4801C17.6735 15.054 18.3897 14.4562 18.9105 13.6868C19.4432 12.9055 19.7095 11.9822 19.7095 10.9169C19.7095 9.50828 19.2124 8.34825 18.218 7.43679C17.2356 6.52533 15.7737 6.0696 13.8324 6.0696H7.17401V16.1016Z" fill="#54BD95"/>
</svg>
